<?xml version="1.0" encoding="UTF-8"?><svg id="Layer_1" xmlns="http://www.w3.org/2000/svg" xmlns:xlink="http://www.w3.org/1999/xlink" viewBox="0 0 85 85"><defs><style>.cls-1{fill:#1f0000;opacity:.3;}.cls-1,.cls-2,.cls-3,.cls-4{stroke-width:0px;}.cls-2{fill:none;}.cls-3{fill:#371e2c;}.cls-5{clip-path:url(#clippath-1);}.cls-4{fill:#fff;}</style><clipPath id="clippath-1"><path class="cls-2" d="M1.58,53.46l14.94-13.99-.04-.03c-.38-.3-.64-.65-.77-1.06v-.04s-.48-1.6-.48-1.6h-4.33s-1.43-1.11-1.43-1.11l7.13-10.1,1.42,1.1,1.28,4.35h1.48s.06,0,.1,0h.02c.43,0,.84.15,1.23.46l1.63,1.26,5.52-5.17h4.59s-4.56,9.47-4.56,9.47l2.51,1.94c.39.3.66.67.79,1.1.12.43.08.8-.14,1.11l-.25.36c1.31-.57,2.92-.75,4.85-.54.89.1,1.78.27,2.67.52l-8.91,12.62c-.49-.81-.91-1.65-1.26-2.51-.76-1.87-1.07-3.55-.93-5.03l-.26.37c-.22.3-.54.46-.97.46-.43,0-.84-.16-1.23-.46l-1.2-.93-3.6,7.47H1.58Z"/></clipPath></defs><circle class="cls-3" cx="41.64" cy="42.16" r="35.64"/><path class="cls-4" d="M45.6,32.7v4.93h-4.5v-4.93h4.5ZM41.1,45.66h4.5v4.93h-4.5v-4.93Z"/><path class="cls-4" d="M61.15,30.63l-6.89,23.2h-5.77l6.94-23.2h5.72Z"/><path class="cls-4" d="M71.7,30.63l-6.89,23.2h-5.77l6.94-23.2h5.72Z"/><path class="cls-1" d="M77.29,41.99c0,19.69-15.96,35.64-35.64,35.64S6,61.68,6,41.99"/><path class="cls-4" d="M1.58,53.46l14.94-13.99-.04-.03c-.38-.3-.64-.65-.77-1.06v-.04s-.48-1.6-.48-1.6h-4.33s-1.43-1.11-1.43-1.11l7.13-10.1,1.42,1.1,1.28,4.35h1.48s.06,0,.1,0h.02c.43,0,.84.15,1.23.46l1.63,1.26,5.52-5.17h4.59s-4.56,9.47-4.56,9.47l2.51,1.94c.39.3.66.67.79,1.1.12.43.08.8-.14,1.11l-.25.36c1.31-.57,2.92-.75,4.85-.54.89.1,1.78.27,2.67.52l-8.91,12.62c-.49-.81-.91-1.65-1.26-2.51-.76-1.87-1.07-3.55-.93-5.03l-.26.37c-.22.3-.54.46-.97.46-.43,0-.84-.16-1.23-.46l-1.2-.93-3.6,7.47H1.58Z"/><g class="cls-5"><path class="cls-1" d="M31.45,56.29c-.16,0-8.07-6.6-8.07-6.6l3.84-8.43,10.03,7.48s-5.33,7.55-5.8,7.55Z"/><polygon class="cls-1" points="6.02 35.54 10.07 28.46 20.25 36.06 13.95 41.67 6.02 35.54"/></g></svg>