<?xml version="1.0" encoding="UTF-8"?>
<svg id="Layer_1" data-name="Layer 1" xmlns="http://www.w3.org/2000/svg" viewBox="0 0 255.17 308.68">
    <defs>
        <style>
            .cls-1, .cls-2 {
            stroke: #231f20;
            }

            .cls-1, .cls-2, .cls-3 {
            fill: none;
            stroke-miterlimit: 10;
            }

            .cls-1, .cls-3 {
            stroke-width: 2px;
            }

            .cls-4 {
            fill: #ffffff;
            }

            .cls-5 {
            fill: #231f20;
            }

            .cls-6 {
            fill: #fdd76f;
            }

            .cls-7 {
            fill: #fff;
            }

            .cls-2 {
            stroke-width: 5px;
            }

            .cls-8 {
            fill: #e44951;
            }

            .cls-3 {
            stroke: #e93847;
            }

            .cls-9 {
            fill: #e93847;
            }
        </style>
    </defs>

    <line class="cls-1" x1="215.78" y1="258.69" x2="215.78" y2="214.82"/>
    <line class="cls-3" x1="53.99" y1="242.88" x2="34.06" y2="242.88"/>
    <path class="cls-3" d="M71.25,242.88h8.55c6.29,0,11.38,5.1,11.38,11.38v4.43"/>
    <circle class="cls-9" cx="62.39" cy="242.88" r="4.43"/>
    <circle class="cls-5" cx="37.92" cy="242.88" r="4.43"/>
    <circle class="cls-5" cx="48.57" cy="161.97" r="18.57"/>
    <circle class="cls-8" cx="127.59" cy="143.41" r="102.57"/>
    <path class="cls-1" d="M90.8,179.69v-45.93c0-6.12,4.96-11.09,11.09-11.09h0c4.76,0,8.82,3,10.39,7.21"/>
    <line class="cls-1" x1="69.89" y1="278.17" x2="189.24" y2="278.17"/>
    <circle class="cls-9" cx="60.7" cy="40.84" r="10.55"/>
    <circle class="cls-5" cx="207.5" cy="71.28" r="13.48"/>
    <circle class="cls-5" cx="38.7" cy="191" r="22.49"/>
    <circle class="cls-9" cx="60.7" cy="60.33" r="2.53"/>
    <circle class="cls-5" cx="207.5" cy="97.44" r="2.53"/>
    <circle class="cls-5" cx="230.5" cy="223.23" r="2.53"/>
    <circle class="cls-5" cx="207.5" cy="105.89" r="2.53"/>
    <circle class="cls-5" cx="207.5" cy="114.34" r="2.53"/>
    <circle class="cls-5" cx="207.5" cy="122.79" r="2.53"/>
    <circle class="cls-5" cx="207.5" cy="131.24" r="2.53"/>
    <circle class="cls-5" cx="207.5" cy="139.69" r="2.53"/>
    <circle class="cls-5" cx="207.5" cy="148.14" r="2.53"/>
    <circle class="cls-5" cx="207.5" cy="156.58" r="2.53"/>
    <circle class="cls-5" cx="207.5" cy="165.03" r="2.53"/>
    <circle class="cls-5" cx="207.5" cy="173.48" r="2.53"/>
    <circle class="cls-5" cx="207.5" cy="181.93" r="2.53"/>
    <circle class="cls-5" cx="207.5" cy="190.38" r="2.53"/>
    <circle class="cls-7" cx="60.7" cy="70.96" r="2.53"/>
    <circle class="cls-7" cx="60.7" cy="81.59" r="2.53"/>
    <circle class="cls-7" cx="60.7" cy="92.22" r="1.67"/>
    <circle class="cls-5" cx="38.7" cy="156.41" r="2.53"/>
    <circle class="cls-5" cx="38.7" cy="145.78" r="2.53"/>
    <circle class="cls-5" cx="38.7" cy="135.15" r="1.67"/>
    <circle class="cls-6" cx="215.78" cy="236.76" r="10.55"/>
    <circle class="cls-7" cx="98.69" cy="210.14" r="1.04"/>
    <path class="cls-5" d="M189.24,105.89c-4.59,0-8.32-3.51-8.32-7.83s3.73-7.83,8.32-7.83,8.32,3.51,8.32,7.83-3.73,7.83-8.32,7.83ZM190.31,95.28c-1.18,0-2.14,1.25-2.14,2.78s.96,2.78,2.14,2.78,2.14-1.25,2.14-2.78-.96-2.78-2.14-2.78Z"/>
    <path class="cls-5" d="M184.69,83.12l-3.66,13.73s4.19.8,4.19.53,4.02-14.27,4.02-14.27h-4.55Z"/>
    <path class="cls-4" d="M129.44,22.62c-27.78,0-50.38,22.6-50.38,50.38s22.6,50.38,50.38,50.38,50.38-22.6,50.38-50.38-22.6-50.38-50.38-50.38Z"/>
    <polyline class="cls-5" points="182.46 100.42 160.26 120.48 141.89 115.13 144.21 130.28 165.61 130.28 189.24 103.98 182.64 100.83"/>
    <g>
        <g>
            <circle class="cls-4" cx="129.44" cy="73" r="33.7"/>
            <path class="cls-5" d="M129.44,112.74c-21.91,0-39.74-17.83-39.74-39.74s17.83-39.74,39.74-39.74,39.74,17.83,39.74,39.74-17.83,39.74-39.74,39.74ZM129.44,45.34c-15.25,0-27.66,12.41-27.66,27.66s12.41,27.66,27.66,27.66,27.66-12.41,27.66-27.66-12.41-27.66-27.66-27.66Z"/>
        </g>
        <circle class="cls-2" cx="133.44" cy="72.18" r="16.73"/>
        <g>
            <path class="cls-5" d="M103.73,192.79l12.64,64.16c1.82,9.26-3.63,18.41-12.64,21.22h0s22.64,0,22.64,0v-126.98l-22.64,41.6Z"/>
            <g>
                <polygon class="cls-4" points="116.35 96.49 114.78 104.06 129.83 104.06 129.83 96.49 116.35 96.49"/>
                <polygon class="cls-5" points="129.83 220.7 129.83 104.06 98.28 220.7 129.83 220.7"/>
                <polygon class="cls-5" points="90.57 220.7 98.28 220.7 129.83 104.06 114.78 104.06 90.57 220.7"/>
            </g>
            <path class="cls-5" d="M155.16,192.79l-12.64,64.16c-1.82,9.26,3.63,18.41,12.64,21.22h0s-22.64,0-22.64,0v-126.98s22.64,41.6,22.64,41.6Z"/>
            <g>
                <polygon class="cls-4" points="142.54 96.49 144.11 104.06 129.06 104.06 129.06 96.49 142.54 96.49"/>
                <polygon class="cls-6" points="129.06 220.7 129.06 104.06 160.61 220.7 129.06 220.7"/>
                <polygon class="cls-6" points="168.32 220.7 160.61 220.7 129.06 104.06 144.11 104.06 168.32 220.7"/>
            </g>
        </g>
    </g>
    <line class="cls-1" x1="193.84" y1="236.76" x2="237.71" y2="236.76"/>
</svg>